<svg width="1024" height="1024" viewBox="0 0 1024 1024" xmlns="http://www.w3.org/2000/svg">
  <defs>
    <linearGradient id="bgGrad" x1="0%" y1="0%" x2="100%" y2="100%">
      <stop offset="0%" style="stop-color:#667eea"/>
      <stop offset="100%" style="stop-color:#764ba2"/>
    </linearGradient>
    <linearGradient id="iconGrad" x1="0%" y1="0%" x2="100%" y2="100%">
      <stop offset="0%" style="stop-color:#ffffff"/>
      <stop offset="100%" style="stop-color:#e0e7ff"/>
    </linearGradient>
  </defs>

  <!-- Background rounded rectangle -->
  <rect x="0" y="0" width="1024" height="1024" rx="220" ry="220" fill="url(#bgGrad)"/>

  <!-- Inner shadow effect -->
  <rect x="40" y="40" width="944" height="944" rx="180" ry="180" fill="none" stroke="rgba(255,255,255,0.1)" stroke-width="2"/>

  <!-- Chat bubble / AI brain icon -->
  <g transform="translate(512, 512) scale(12)">
    <!-- Globe/World icon representing open/libre -->
    <path d="M0 -30C-16.57 -30 -30 -16.57 -30 0s13.43 30 30 30 30-13.43 30-30S16.57-30 0-30zm-3 53.79c-11.85-1.47-21-11.55-21-23.79 0-1.86.24-3.63.63-5.37L-9 15v3c0 3.3 2.7 6 6 6v5.79zm20.7-7.62c-.78-2.43-3-4.17-5.7-4.17h-3v-9c0-1.65-1.35-3-3-3H-12v-6h6c1.65 0 3-1.35 3-3V-9h6c3.3 0 6-2.7 6-6v-1.23c8.79 3.57 15 12.18 15 22.23 0 6.24-2.4 11.91-6.3 16.17z" fill="url(#iconGrad)"/>
  </g>

  <!-- Subtle highlight -->
  <ellipse cx="400" cy="300" rx="250" ry="150" fill="rgba(255,255,255,0.08)"/>
</svg>
